<svg id="Layer_1" fill="#9870fc" height="512" viewBox="0 0 512 512" width="512" xmlns="http://www.w3.org/2000/svg" data-name="Layer 1"><path d="m402.085 161.057h51.25v20.625h-51.25z"/><path d="m256 164.021a122.6 122.6 0 1 0 122.6 122.6 122.743 122.743 0 0 0 -122.6-122.6zm0 199.062a76.458 76.458 0 1 1 76.458-76.458 76.545 76.545 0 0 1 -76.458 76.458z"/><circle cx="68.777" cy="171.828" r="10.313"/><circle cx="256" cy="286.625" r="66.458"/><path d="m460.167 118.083h-81.667a5 5 0 0 1 -5-5 46.093 46.093 0 0 0 -46.042-46.041h-142.916a46.093 46.093 0 0 0 -46.042 46.041 5 5 0 0 1 -5 5h-81.667a35.874 35.874 0 0 0 -35.833 35.834v255.208a35.873 35.873 0 0 0 35.833 35.833h408.334a35.873 35.873 0 0 0 35.833-35.833v-255.208a35.874 35.874 0 0 0 -35.833-35.834zm-409.055 279.017a5 5 0 0 1 -10 0v-80.91a5 5 0 0 1 10 0zm0-101.51a5 5 0 0 1 -10 0v-12.267a5 5 0 0 1 10 0zm17.665-103.45a20.313 20.313 0 1 1 20.313-20.312 20.335 20.335 0 0 1 -20.313 20.312zm187.223 227.089c-73.118 0-132.6-59.486-132.6-132.6s59.486-132.6 132.6-132.6 132.6 59.486 132.6 132.6-59.482 132.6-132.6 132.6zm207.335-232.547a5 5 0 0 1 -5 5h-61.25a5 5 0 0 1 -5-5v-30.625a5 5 0 0 1 5-5h61.25a5 5 0 0 1 5 5z"/></svg>