<svg id="Layer_1"  enable-background="new 0 0 512.102 512.102" height="512" viewBox="0 0 512.102 512.102" width="512" xmlns="http://www.w3.org/2000/svg"><g><path d="m439.817 0h-282.402c-39.827 0-72.23 32.402-72.23 72.23v44.976h-70.133c-8.283 0-14.998 6.715-14.998 14.998v364.901c0 8.283 6.715 14.998 14.998 14.998h274.397c8.283 0 14.998-6.715 14.998-14.998v-221.265h135.371c39.828 0 72.23-32.402 72.23-72.23v-131.38c-.001-39.828-32.403-72.23-72.231-72.23zm-321.399 329.589 59.918.07v62.769h-59.919zm59.917-29.925-59.917-.07.001-35.234c11.257 7.251 24.638 11.479 38.995 11.479h20.921zm96.117 182.443h-244.402v-334.906h55.135v56.408c0 7.452 1.135 14.643 3.24 21.411-.001 45.518-.004 136.964-.005 182.405 0 3.978 1.58 7.793 4.392 10.605 2.813 2.813 6.627 4.393 10.605 4.393h89.915c8.283 0 14.998-6.715 14.998-14.998 0-27.338 0-105.657 0-131.586h66.121v206.268zm207.6-278.498c0 23.288-18.946 42.235-42.235 42.235h-282.402c-23.288 0-42.234-18.946-42.234-42.235v-131.379c0-23.288 18.946-42.234 42.234-42.234h282.403c23.288 0 42.235 18.946 42.235 42.234v131.379z"/><path d="m206.411 69.086c-35.385 0-64.172 28.729-64.172 64.042 3.523 84.96 124.833 84.935 128.343 0 .001-35.312-28.786-64.042-64.171-64.042zm0 98.09c-18.845 0-34.176-15.274-34.176-34.047 1.876-45.167 66.484-45.154 68.353 0 0 18.773-15.332 34.047-34.177 34.047z"/><path d="m349.076 70.012h-40.824c-8.283 0-14.998 6.715-14.998 14.998v99.941c.792 19.899 29.21 19.884 29.995 0v-32.768h11.404c19.899-.792 19.884-29.21 0-29.995h-11.403v-22.18h25.826c19.899-.794 19.883-29.211 0-29.996z"/><path d="m439.511 70.012h-40.824c-8.283 0-14.998 6.715-14.998 14.998v99.941c.792 19.899 29.21 19.884 29.995 0v-32.768h11.404c19.899-.792 19.884-29.21 0-29.995h-11.404v-22.18h25.826c19.9-.794 19.885-29.211.001-29.996z"/></g></svg>